<?xml version="1.0" encoding="UTF-8" standalone="no"?>
<!DOCTYPE svg PUBLIC "-//W3C//DTD SVG 1.1//EN"
 "http://www.w3.org/Graphics/SVG/1.1/DTD/svg11.dtd">
<!-- Generated by graphviz version 5.0.0 (20220707.1540)
 -->
<!-- Title: UmlClassDiagram Pages: 1 -->
<svg width="986pt" height="1318pt"
 viewBox="0.00 0.00 986.06 1317.60" xmlns="http://www.w3.org/2000/svg" xmlns:xlink="http://www.w3.org/1999/xlink">
<g id="graph0" class="graph" transform="scale(1 1) rotate(0) translate(4 1313.6)">
<title>UmlClassDiagram</title>
<polygon fill="white" stroke="transparent" points="-4,4 -4,-1313.6 982.06,-1313.6 982.06,4 -4,4"/>
<!-- 1 -->
<g id="node1" class="node">
<title>1</title>
<polygon fill="#f2f2f2" stroke="black" points="477.25,-0.5 477.25,-167.7 574.53,-167.7 574.53,-0.5 477.25,-0.5"/>
<text text-anchor="middle" x="525.89" y="-151.1" font-family="Times,serif" font-size="14.00">&lt;&lt;Enum&gt;&gt;</text>
<text text-anchor="middle" x="525.89" y="-134.3" font-family="Times,serif" font-size="14.00">State</text>
<text text-anchor="middle" x="525.89" y="-117.5" font-family="Times,serif" font-size="14.00">Delivery.sol</text>
<polyline fill="none" stroke="black" points="477.25,-109.3 574.53,-109.3 "/>
<text text-anchor="start" x="485.25" y="-92.7" font-family="Times,serif" font-size="14.00">Submitted: 0</text>
<text text-anchor="start" x="485.25" y="-75.9" font-family="Times,serif" font-size="14.00">Pending: 1</text>
<text text-anchor="start" x="485.25" y="-59.1" font-family="Times,serif" font-size="14.00">Picking_Up: 2</text>
<text text-anchor="start" x="485.25" y="-42.3" font-family="Times,serif" font-size="14.00">Delivering: 3</text>
<text text-anchor="start" x="485.25" y="-25.5" font-family="Times,serif" font-size="14.00">Delivered: 4</text>
<text text-anchor="start" x="485.25" y="-8.7" font-family="Times,serif" font-size="14.00">Canceled: 5</text>
</g>
<!-- 0 -->
<g id="node8" class="node">
<title>0</title>
<polygon fill="#f2f2f2" stroke="black" points="73.72,-204.7 73.72,-883.9 978.06,-883.9 978.06,-204.7 73.72,-204.7"/>
<text text-anchor="middle" x="525.89" y="-867.3" font-family="Times,serif" font-size="14.00">Delivery</text>
<text text-anchor="middle" x="525.89" y="-850.5" font-family="Times,serif" font-size="14.00">Delivery.sol</text>
<polyline fill="none" stroke="black" points="73.72,-842.3 978.06,-842.3 "/>
<text text-anchor="start" x="81.72" y="-825.7" font-family="Times,serif" font-size="14.00">Private:</text>
<text text-anchor="start" x="81.72" y="-808.9" font-family="Times,serif" font-size="14.00"> &#160;&#160;currentOrderId: uint</text>
<text text-anchor="start" x="81.72" y="-792.1" font-family="Times,serif" font-size="14.00"> &#160;&#160;currentMessageId: uint</text>
<text text-anchor="start" x="81.72" y="-775.3" font-family="Times,serif" font-size="14.00">Public:</text>
<text text-anchor="start" x="81.72" y="-758.5" font-family="Times,serif" font-size="14.00"> &#160;&#160;orderId: uint[]</text>
<text text-anchor="start" x="81.72" y="-741.7" font-family="Times,serif" font-size="14.00"> &#160;&#160;orders: mapping(uint=&gt;Order)</text>
<text text-anchor="start" x="81.72" y="-724.9" font-family="Times,serif" font-size="14.00"> &#160;&#160;messages: mapping(uint=&gt;Message)</text>
<text text-anchor="start" x="81.72" y="-708.1" font-family="Times,serif" font-size="14.00"> &#160;&#160;balances: mapping(address=&gt;uint)</text>
<polyline fill="none" stroke="black" points="73.72,-699.9 978.06,-699.9 "/>
<text text-anchor="start" x="81.72" y="-683.3" font-family="Times,serif" font-size="14.00">Internal:</text>
<text text-anchor="start" x="81.72" y="-666.5" font-family="Times,serif" font-size="14.00"> &#160;&#160;&#160;generateOrderId(): uint256</text>
<text text-anchor="start" x="81.72" y="-649.7" font-family="Times,serif" font-size="14.00"> &#160;&#160;&#160;generateMessageId(): uint256</text>
<text text-anchor="start" x="81.72" y="-632.9" font-family="Times,serif" font-size="14.00">External:</text>
<text text-anchor="start" x="81.72" y="-616.1" font-family="Times,serif" font-size="14.00"> &#160;&#160;&#160;&lt;&lt;payable&gt;&gt; createDeliveryOrder(sender: address, receiver: address, _addressInfo: DeliveryAddressInfo, _packageInfo: Package, _paymentInfo: Payment)</text>
<text text-anchor="start" x="81.72" y="-599.3" font-family="Times,serif" font-size="14.00"> &#160;&#160;&#160;&lt;&lt;payable&gt;&gt; cancelOrder(_orderId: uint)</text>
<text text-anchor="start" x="81.72" y="-582.5" font-family="Times,serif" font-size="14.00"> &#160;&#160;&#160;acceptOrder(_orderId: uint)</text>
<text text-anchor="start" x="81.72" y="-565.7" font-family="Times,serif" font-size="14.00"> &#160;&#160;&#160;orderPickedUp(_orderId: uint) &lt;&lt;onlyDeliveryman&gt;&gt;</text>
<text text-anchor="start" x="81.72" y="-548.9" font-family="Times,serif" font-size="14.00"> &#160;&#160;&#160;sendMessage(_orderId: uint, sender: address, content: string)</text>
<text text-anchor="start" x="81.72" y="-532.1" font-family="Times,serif" font-size="14.00"> &#160;&#160;&#160;getMessage(_orderId: uint, userType: string): Message[]</text>
<text text-anchor="start" x="81.72" y="-515.3" font-family="Times,serif" font-size="14.00"> &#160;&#160;&#160;getPendingOrder(): Order[]</text>
<text text-anchor="start" x="81.72" y="-498.5" font-family="Times,serif" font-size="14.00"> &#160;&#160;&#160;getBusinessCustomerOrder(wallet_address: address): Order[]</text>
<text text-anchor="start" x="81.72" y="-481.7" font-family="Times,serif" font-size="14.00"> &#160;&#160;&#160;getDeliverymanOrder(wallet_address: address): Order[]</text>
<text text-anchor="start" x="81.72" y="-464.9" font-family="Times,serif" font-size="14.00">Public:</text>
<text text-anchor="start" x="81.72" y="-448.1" font-family="Times,serif" font-size="14.00"> &#160;&#160;&#160;&lt;&lt;payable&gt;&gt; payBySender(_orderId: uint)</text>
<text text-anchor="start" x="81.72" y="-431.3" font-family="Times,serif" font-size="14.00"> &#160;&#160;&#160;&lt;&lt;payable&gt;&gt; payByReceipient(_orderId: uint)</text>
<text text-anchor="start" x="81.72" y="-414.5" font-family="Times,serif" font-size="14.00"> &#160;&#160;&#160;&lt;&lt;payable&gt;&gt; deliveryCompleted(_orderId: uint) &lt;&lt;onlyRecipient&gt;&gt;</text>
<text text-anchor="start" x="81.72" y="-397.7" font-family="Times,serif" font-size="14.00"> &#160;&#160;&#160;&lt;&lt;event&gt;&gt; OrderCreated(orderID: uint, timestamp: uint256)</text>
<text text-anchor="start" x="81.72" y="-380.9" font-family="Times,serif" font-size="14.00"> &#160;&#160;&#160;&lt;&lt;event&gt;&gt; OrderCanceled(status: string)</text>
<text text-anchor="start" x="81.72" y="-364.1" font-family="Times,serif" font-size="14.00"> &#160;&#160;&#160;&lt;&lt;event&gt;&gt; OrderPaidBySender(status: string)</text>
<text text-anchor="start" x="81.72" y="-347.3" font-family="Times,serif" font-size="14.00"> &#160;&#160;&#160;&lt;&lt;event&gt;&gt; OrderPaidByReceiver(status: string)</text>
<text text-anchor="start" x="81.72" y="-330.5" font-family="Times,serif" font-size="14.00"> &#160;&#160;&#160;&lt;&lt;event&gt;&gt; OrderAccepted(status: string)</text>
<text text-anchor="start" x="81.72" y="-313.7" font-family="Times,serif" font-size="14.00"> &#160;&#160;&#160;&lt;&lt;event&gt;&gt; OrderPickedUp(status: string)</text>
<text text-anchor="start" x="81.72" y="-296.9" font-family="Times,serif" font-size="14.00"> &#160;&#160;&#160;&lt;&lt;event&gt;&gt; OrderDelivered(status: string)</text>
<text text-anchor="start" x="81.72" y="-280.1" font-family="Times,serif" font-size="14.00"> &#160;&#160;&#160;&lt;&lt;event&gt;&gt; MessageSent(messageID: uint, timestamp: uint256)</text>
<text text-anchor="start" x="81.72" y="-263.3" font-family="Times,serif" font-size="14.00"> &#160;&#160;&#160;&lt;&lt;modifier&gt;&gt; condition(condition_: bool)</text>
<text text-anchor="start" x="81.72" y="-246.5" font-family="Times,serif" font-size="14.00"> &#160;&#160;&#160;&lt;&lt;modifier&gt;&gt; onlySender(_orderId: uint)</text>
<text text-anchor="start" x="81.72" y="-229.7" font-family="Times,serif" font-size="14.00"> &#160;&#160;&#160;&lt;&lt;modifier&gt;&gt; onlyRecipient(_orderId: uint)</text>
<text text-anchor="start" x="81.72" y="-212.9" font-family="Times,serif" font-size="14.00"> &#160;&#160;&#160;&lt;&lt;modifier&gt;&gt; onlyDeliveryman(_orderId: uint)</text>
</g>
<!-- 1&#45;&gt;0 -->
<g id="edge6" class="edge">
<title>1&#45;&gt;0</title>
<path fill="none" stroke="black" d="M520.56,-167.81C520.38,-175.61 520.22,-183.79 520.07,-192.3"/>
<polygon fill="black" stroke="black" points="520.07,-192.52 523.98,-198.58 519.88,-204.52 515.98,-198.46 520.07,-192.52"/>
</g>
<!-- 2 -->
<g id="node2" class="node">
<title>2</title>
<polygon fill="#f2f2f2" stroke="black" points="232.45,-920.9 232.45,-1121.7 439.33,-1121.7 439.33,-920.9 232.45,-920.9"/>
<text text-anchor="middle" x="335.89" y="-1105.1" font-family="Times,serif" font-size="14.00">&lt;&lt;Struct&gt;&gt;</text>
<text text-anchor="middle" x="335.89" y="-1088.3" font-family="Times,serif" font-size="14.00">Order</text>
<text text-anchor="middle" x="335.89" y="-1071.5" font-family="Times,serif" font-size="14.00">Delivery.sol</text>
<polyline fill="none" stroke="black" points="232.45,-1063.3 439.33,-1063.3 "/>
<text text-anchor="start" x="240.45" y="-1046.7" font-family="Times,serif" font-size="14.00">id: uint</text>
<text text-anchor="start" x="240.45" y="-1029.9" font-family="Times,serif" font-size="14.00">walletAddress: Address</text>
<text text-anchor="start" x="240.45" y="-1013.1" font-family="Times,serif" font-size="14.00">addressInfo: DeliveryAddressInfo</text>
<text text-anchor="start" x="240.45" y="-996.3" font-family="Times,serif" font-size="14.00">packageInfo: Package</text>
<text text-anchor="start" x="240.45" y="-979.5" font-family="Times,serif" font-size="14.00">paymentInfo: Payment</text>
<text text-anchor="start" x="240.45" y="-962.7" font-family="Times,serif" font-size="14.00">orderStatus: State</text>
<text text-anchor="start" x="240.45" y="-945.9" font-family="Times,serif" font-size="14.00">timestamp: uint256</text>
<text text-anchor="start" x="240.45" y="-929.1" font-family="Times,serif" font-size="14.00">messageID: uint[]</text>
</g>
<!-- 2&#45;&gt;1 -->
<g id="edge5" class="edge">
<title>2&#45;&gt;1</title>
<path fill="none" stroke="black" stroke-dasharray="5,2" d="M232.42,-997.15C172.29,-977.81 101.38,-943.52 64.89,-884.4 -14.5,-755.77 -27.66,-323.71 64.89,-204.2 114.04,-140.75 353.88,-105.03 466.84,-91.48"/>
<polygon fill="black" stroke="black" points="467.51,-94.92 477.03,-90.27 466.69,-87.97 467.51,-94.92"/>
</g>
<!-- 4 -->
<g id="node4" class="node">
<title>4</title>
<polygon fill="#f2f2f2" stroke="black" points="485.22,-1175.5 485.22,-1292.3 620.57,-1292.3 620.57,-1175.5 485.22,-1175.5"/>
<text text-anchor="middle" x="552.89" y="-1275.7" font-family="Times,serif" font-size="14.00">&lt;&lt;Struct&gt;&gt;</text>
<text text-anchor="middle" x="552.89" y="-1258.9" font-family="Times,serif" font-size="14.00">Address</text>
<text text-anchor="middle" x="552.89" y="-1242.1" font-family="Times,serif" font-size="14.00">Delivery.sol</text>
<polyline fill="none" stroke="black" points="485.22,-1233.9 620.57,-1233.9 "/>
<text text-anchor="start" x="493.22" y="-1217.3" font-family="Times,serif" font-size="14.00">sender: address</text>
<text text-anchor="start" x="493.22" y="-1200.5" font-family="Times,serif" font-size="14.00">receiver: address</text>
<text text-anchor="start" x="493.22" y="-1183.7" font-family="Times,serif" font-size="14.00">deliveryman: address</text>
</g>
<!-- 2&#45;&gt;4 -->
<g id="edge1" class="edge">
<title>2&#45;&gt;4</title>
<path fill="none" stroke="black" stroke-dasharray="5,2" d="M438.35,-1121.74C454.67,-1137.57 471.17,-1153.59 486.37,-1168.34"/>
<polygon fill="black" stroke="black" points="484.1,-1171.02 493.72,-1175.47 488.98,-1165.99 484.1,-1171.02"/>
</g>
<!-- 5 -->
<g id="node5" class="node">
<title>5</title>
<polygon fill="#f2f2f2" stroke="black" points="638.78,-1167.1 638.78,-1300.7 785.01,-1300.7 785.01,-1167.1 638.78,-1167.1"/>
<text text-anchor="middle" x="711.89" y="-1284.1" font-family="Times,serif" font-size="14.00">&lt;&lt;Struct&gt;&gt;</text>
<text text-anchor="middle" x="711.89" y="-1267.3" font-family="Times,serif" font-size="14.00">DeliveryAddressInfo</text>
<text text-anchor="middle" x="711.89" y="-1250.5" font-family="Times,serif" font-size="14.00">Delivery.sol</text>
<polyline fill="none" stroke="black" points="638.78,-1242.3 785.01,-1242.3 "/>
<text text-anchor="start" x="646.78" y="-1225.7" font-family="Times,serif" font-size="14.00">senderAddress: string</text>
<text text-anchor="start" x="646.78" y="-1208.9" font-family="Times,serif" font-size="14.00">senderDistrict: string</text>
<text text-anchor="start" x="646.78" y="-1192.1" font-family="Times,serif" font-size="14.00">receiverAddress: string</text>
<text text-anchor="start" x="646.78" y="-1175.3" font-family="Times,serif" font-size="14.00">receiverDistrict: string</text>
</g>
<!-- 2&#45;&gt;5 -->
<g id="edge2" class="edge">
<title>2&#45;&gt;5</title>
<path fill="none" stroke="black" stroke-dasharray="5,2" d="M439.44,-1089.49C460.28,-1101.39 482.39,-1112.92 503.89,-1122.2 557.37,-1145.28 579.02,-1129.84 629.89,-1158.2 631.66,-1159.18 633.42,-1160.21 635.17,-1161.28"/>
<polygon fill="black" stroke="black" points="633.54,-1164.4 643.83,-1166.93 637.36,-1158.54 633.54,-1164.4"/>
</g>
<!-- 6 -->
<g id="node6" class="node">
<title>6</title>
<polygon fill="#f2f2f2" stroke="black" points="112.67,-1158.7 112.67,-1309.1 279.12,-1309.1 279.12,-1158.7 112.67,-1158.7"/>
<text text-anchor="middle" x="195.89" y="-1292.5" font-family="Times,serif" font-size="14.00">&lt;&lt;Struct&gt;&gt;</text>
<text text-anchor="middle" x="195.89" y="-1275.7" font-family="Times,serif" font-size="14.00">Package</text>
<text text-anchor="middle" x="195.89" y="-1258.9" font-family="Times,serif" font-size="14.00">Delivery.sol</text>
<polyline fill="none" stroke="black" points="112.67,-1250.7 279.12,-1250.7 "/>
<text text-anchor="start" x="120.67" y="-1234.1" font-family="Times,serif" font-size="14.00">packageDescription: string</text>
<text text-anchor="start" x="120.67" y="-1217.3" font-family="Times,serif" font-size="14.00">packageHeight: uint</text>
<text text-anchor="start" x="120.67" y="-1200.5" font-family="Times,serif" font-size="14.00">packageWidth: uint</text>
<text text-anchor="start" x="120.67" y="-1183.7" font-family="Times,serif" font-size="14.00">packageDepth: uint</text>
<text text-anchor="start" x="120.67" y="-1166.9" font-family="Times,serif" font-size="14.00">packageWeight: uint</text>
</g>
<!-- 2&#45;&gt;6 -->
<g id="edge3" class="edge">
<title>2&#45;&gt;6</title>
<path fill="none" stroke="black" stroke-dasharray="5,2" d="M269.79,-1121.74C263.5,-1131.2 257.17,-1140.72 251,-1150"/>
<polygon fill="black" stroke="black" points="248.01,-1148.18 245.39,-1158.44 253.84,-1152.05 248.01,-1148.18"/>
</g>
<!-- 7 -->
<g id="node7" class="node">
<title>7</title>
<polygon fill="#f2f2f2" stroke="black" points="332.98,-1167.1 332.98,-1300.7 466.8,-1300.7 466.8,-1167.1 332.98,-1167.1"/>
<text text-anchor="middle" x="399.89" y="-1284.1" font-family="Times,serif" font-size="14.00">&lt;&lt;Struct&gt;&gt;</text>
<text text-anchor="middle" x="399.89" y="-1267.3" font-family="Times,serif" font-size="14.00">Payment</text>
<text text-anchor="middle" x="399.89" y="-1250.5" font-family="Times,serif" font-size="14.00">Delivery.sol</text>
<polyline fill="none" stroke="black" points="332.98,-1242.3 466.8,-1242.3 "/>
<text text-anchor="start" x="340.98" y="-1225.7" font-family="Times,serif" font-size="14.00">payBySender: bool</text>
<text text-anchor="start" x="340.98" y="-1208.9" font-family="Times,serif" font-size="14.00">deliveryFee: uint</text>
<text text-anchor="start" x="340.98" y="-1192.1" font-family="Times,serif" font-size="14.00">productAmount: uint</text>
<text text-anchor="start" x="340.98" y="-1175.3" font-family="Times,serif" font-size="14.00">totalAmount: uint</text>
</g>
<!-- 2&#45;&gt;7 -->
<g id="edge4" class="edge">
<title>2&#45;&gt;7</title>
<path fill="none" stroke="black" stroke-dasharray="5,2" d="M366.11,-1121.74C369.75,-1133.72 373.42,-1145.81 376.94,-1157.37"/>
<polygon fill="black" stroke="black" points="373.59,-1158.39 379.85,-1166.94 380.29,-1156.36 373.59,-1158.39"/>
</g>
<!-- 2&#45;&gt;0 -->
<g id="edge7" class="edge">
<title>2&#45;&gt;0</title>
<path fill="none" stroke="black" d="M381.31,-920.78C384.72,-912.63 388.25,-904.15 391.88,-895.4"/>
<polygon fill="black" stroke="black" points="391.93,-895.28 390.52,-888.2 396.51,-884.18 397.91,-891.26 391.93,-895.28"/>
</g>
<!-- 3 -->
<g id="node3" class="node">
<title>3</title>
<polygon fill="#f2f2f2" stroke="black" points="512.64,-946.1 512.64,-1096.5 637.14,-1096.5 637.14,-946.1 512.64,-946.1"/>
<text text-anchor="middle" x="574.89" y="-1079.9" font-family="Times,serif" font-size="14.00">&lt;&lt;Struct&gt;&gt;</text>
<text text-anchor="middle" x="574.89" y="-1063.1" font-family="Times,serif" font-size="14.00">Message</text>
<text text-anchor="middle" x="574.89" y="-1046.3" font-family="Times,serif" font-size="14.00">Delivery.sol</text>
<polyline fill="none" stroke="black" points="512.64,-1038.1 637.14,-1038.1 "/>
<text text-anchor="start" x="520.64" y="-1021.5" font-family="Times,serif" font-size="14.00">id: uint</text>
<text text-anchor="start" x="520.64" y="-1004.7" font-family="Times,serif" font-size="14.00">sender: address</text>
<text text-anchor="start" x="520.64" y="-987.9" font-family="Times,serif" font-size="14.00">receiver: address</text>
<text text-anchor="start" x="520.64" y="-971.1" font-family="Times,serif" font-size="14.00">content: string</text>
<text text-anchor="start" x="520.64" y="-954.3" font-family="Times,serif" font-size="14.00">timestamp: uint256</text>
</g>
<!-- 3&#45;&gt;0 -->
<g id="edge8" class="edge">
<title>3&#45;&gt;0</title>
<path fill="none" stroke="black" d="M572.27,-945.74C571.1,-930.75 569.7,-914.1 568.11,-896.33"/>
<polygon fill="black" stroke="black" points="568.1,-896.14 563.57,-890.52 567.02,-884.18 571.54,-889.8 568.1,-896.14"/>
</g>
<!-- 4&#45;&gt;0 -->
<g id="edge9" class="edge">
<title>4&#45;&gt;0</title>
<path fill="none" stroke="black" d="M614.1,-1175.22C627.07,-1159.4 638.93,-1141.3 645.89,-1122.2 676.59,-1037.93 659.72,-1009.02 645.89,-920.4 644.63,-912.34 643.23,-904.22 641.71,-896.06"/>
<polygon fill="black" stroke="black" points="641.67,-895.86 636.6,-890.74 639.38,-884.08 644.45,-889.21 641.67,-895.86"/>
</g>
<!-- 5&#45;&gt;0 -->
<g id="edge10" class="edge">
<title>5&#45;&gt;0</title>
<path fill="none" stroke="black" d="M713.78,-1166.84C710.03,-1103.01 698.31,-1003.99 676.89,-920.4 674.81,-912.26 672.6,-904.06 670.29,-895.81"/>
<polygon fill="black" stroke="black" points="670.25,-895.67 664.76,-891 666.96,-884.13 672.45,-888.8 670.25,-895.67"/>
</g>
<!-- 6&#45;&gt;0 -->
<g id="edge11" class="edge">
<title>6&#45;&gt;0</title>
<path fill="none" stroke="black" d="M197.77,-1158.42C197.83,-1093.27 201.85,-997.3 232.89,-920.4 236.32,-911.91 240,-903.46 243.92,-895.06"/>
<polygon fill="black" stroke="black" points="244.01,-894.87 243,-887.73 249.2,-884.05 250.21,-891.19 244.01,-894.87"/>
</g>
<!-- 7&#45;&gt;0 -->
<g id="edge12" class="edge">
<title>7&#45;&gt;0</title>
<path fill="none" stroke="black" d="M440.78,-1166.95C447.04,-1152.47 452.76,-1137.03 456.89,-1122.2 476.98,-1050.12 491.97,-971.47 502.92,-896.09"/>
<polygon fill="black" stroke="black" points="502.94,-895.91 499.83,-889.4 504.64,-884.03 507.75,-890.53 502.94,-895.91"/>
</g>
<!-- 0&#45;&gt;1 -->
<g id="edge18" class="edge">
<title>0&#45;&gt;1</title>
<path fill="none" stroke="black" stroke-dasharray="5,2" d="M531.9,-204.52C531.77,-195.33 531.61,-186.45 531.44,-177.96"/>
<polygon fill="black" stroke="black" points="534.94,-177.73 531.23,-167.81 527.94,-177.88 534.94,-177.73"/>
</g>
<!-- 0&#45;&gt;2 -->
<g id="edge13" class="edge">
<title>0&#45;&gt;2</title>
<path fill="none" stroke="black" d="M384.17,-884.18C380.54,-893.54 377.03,-902.64 373.67,-911.41"/>
<polygon fill="black" stroke="black" points="370.39,-910.19 370.09,-920.78 376.93,-912.69 370.39,-910.19"/>
</g>
<!-- 0&#45;&gt;3 -->
<g id="edge14" class="edge">
<title>0&#45;&gt;3</title>
<path fill="none" stroke="black" d="M554.68,-884.18C556.79,-902.51 558.87,-919.84 560.84,-935.61"/>
<polygon fill="black" stroke="black" points="557.4,-936.26 562.13,-945.74 564.34,-935.38 557.4,-936.26"/>
</g>
<!-- 0&#45;&gt;5 -->
<g id="edge15" class="edge">
<title>0&#45;&gt;5</title>
<path fill="none" stroke="black" stroke-dasharray="5,2" d="M648.97,-884.13C652.5,-896.31 655.82,-908.43 658.89,-920.4 679.23,-999.75 690.82,-1092.99 698.73,-1156.85"/>
<polygon fill="black" stroke="black" points="695.27,-1157.34 699.97,-1166.84 702.21,-1156.48 695.27,-1157.34"/>
</g>
<!-- 0&#45;&gt;6 -->
<g id="edge16" class="edge">
<title>0&#45;&gt;6</title>
<path fill="none" stroke="black" stroke-dasharray="5,2" d="M231.2,-884.05C225.28,-896.06 219.82,-908.19 214.89,-920.4 185.43,-993.4 180.31,-1083.57 183.05,-1148.26"/>
<polygon fill="black" stroke="black" points="179.57,-1148.6 183.56,-1158.42 186.56,-1148.25 179.57,-1148.6"/>
</g>
<!-- 0&#45;&gt;7 -->
<g id="edge17" class="edge">
<title>0&#45;&gt;7</title>
<path fill="none" stroke="black" stroke-dasharray="5,2" d="M487.15,-884.03C475.56,-963.04 460.05,-1046.26 438.89,-1122.2 435.66,-1133.79 431.47,-1145.75 427,-1157.33"/>
<polygon fill="black" stroke="black" points="423.62,-1156.36 423.2,-1166.95 430.13,-1158.93 423.62,-1156.36"/>
</g>
</g>
</svg>
